#!OML:ASF E:\motion texture\Top Level 1\Subject 1\Session 1\male.ASF
:FULLY-SPECIFIED
:DEGREES
640
root -43.2207 18.0521 -0.824054 805.122 -78.2448 -795.086
lowerback 0.590598 0.0817449 6.90652
upperback 0.239598 0.141934 -0.433723
thorax -0.0659498 0.0732077 -4.3248
lowerneck -4.64802 -15.6312 -18.0313
upperneck 4.35996 -22.0246 22.0241
head 6.66974 -10.5825 7.51685
rclavicle -7.95139e-016 1.43125e-014
rhumerus 17.1736 7.68979 -32.2397
rradius 60.2156
rwrist 14.6417
rhand -37.2928 -41.9559
rfingers 7.12502
rthumb -10.3571 -431.681
lclavicle -7.95139e-016 1.43125e-014
lhumerus -36.5993 8.4812 74.7193
lradius 47.0488
lwrist 1.83606
lhand -9.84652 32.6943
lfingers 7.12502
lthumb 16.1314 62.043
rfemur -11.0495 -0.972313 37.5762
rtibia 22.1479
rfoot -10.664 -14.249
rtoes 7.44675
lfemur -33.3005 -2.77318 -0.847695
ltibia 27.6405
lfoot -7.90117 4.07868
ltoes -16.6976
641
root -43.3635 18.0486 -0.804189 805.506 -78.2261 -795.483
lowerback 0.488208 0.0624533 7.03178
upperback 0.148 0.111942 -0.392355
thorax -0.106721 0.0542153 -4.35215
lowerneck -4.58589 -15.6305 -18.0089
upperneck 4.42026 -22.0276 21.9075
head 6.65903 -10.5881 7.48057
rclavicle 1.98785e-016 3.49861e-014
rhumerus 17.8585 3.71214 -32.6859
rradius 58.5602
rwrist 13.604
rhand -35.9994 -41.4066
rfingers 7.12502
rthumb -9.10923 -431.19
lclavicle 1.98785e-016 3.49861e-014
lhumerus -36.6567 9.34145 73.8097
lradius 45.4945
lwrist 0.864565
lhand -10.0779 32.4758
lfingers 7.12502
lthumb 15.9086 61.8424
rfemur -10.6538 -0.888195 37.5209
rtibia 22.4006
rfoot -10.7855 -14.2343
rtoes 6.67152
lfemur -33.2168 -2.71679 -0.858141
ltibia 26.3004
lfoot -7.68141 4.33555
ltoes -16.5932
642
root -43.5071 18.0442 -0.783631 805.884 -78.2173 -795.881
lowerback 0.384941 0.0460566 7.14557
upperback 0.0588097 0.0853397 -0.351107
thorax -0.144218 0.0369539 -4.37317
lowerneck -4.52323 -15.6306 -17.9841
upperneck 4.4783 -22.0313 21.7898
head 6.64728 -10.5942 7.44353
rclavicle -1.19271e-015 1.27222e-014
rhumerus 18.607 -0.27024 -33.291
rradius 57.0406
rwrist 12.8066
rhand -34.7254 -40.7864
rfingers 7.12502
rthumb -7.87969 -430.62
lclavicle -1.19271e-015 1.27222e-014
lhumerus -36.7067 10.2077 72.8988
lradius 43.9307
lwrist -0.146675
lhand -10.2983 32.2883
lfingers 7.12502
lthumb 15.6964 61.6716
rfemur -10.2778 -0.814692 37.4499
rtibia 22.7043
rfoot -10.8968 -14.2138
rtoes 5.87987
lfemur -33.1154 -2.67221 -0.886147
ltibia 25.0275
lfoot -7.43526 4.57984
ltoes -16.4637
643
root -43.6519 18.0389 -0.762435 806.252 -78.2196 -796.277
lowerback 0.280434 0.0323841 7.24605
upperback -0.0280074 0.0618945 -0.310653
thorax -0.178268 0.0213459 -4.38755
lowerneck -4.45798 -15.6316 -17.9577
upperneck 4.53349 -22.0364 21.6719
head 6.63433 -10.6011 7.40626
rclavicle 1.39149e-015 3.18055e-015
rhumerus 19.4159 -4.22412 -34.0496
rradius 55.6957
rwrist 12.2484
rhand -33.4856 -40.17
rfingers 7.12502
rthumb -6.68301 -430.045
lclavicle 1.39149e-015 3.18055e-015
lhumerus -36.7529 11.0837 71.9859
lradius 42.3634
lwrist -1.20109
lhand -10.5068 32.1284
lfingers 7.12502
lthumb 15.4955 61.5274
rfemur -9.92244 -0.75339 37.3614
rtibia 23.0605
rfoot -10.9955 -14.1894
rtoes 5.06605
lfemur -32.9972 -2.6414 -0.933531
ltibia 23.8288
lfoot -7.17033 4.80743
ltoes -16.3162
644
root -43.7976 18.0327 -0.740642 806.608 -78.2332 -796.667
lowerback 0.175867 0.02077 7.33213
upperback -0.112039 0.0408277 -0.27101
thorax -0.209176 0.00703401 -4.39469
lowerneck -4.38979 -15.6334 -17.9308
upperneck 4.58374 -22.0426 21.5569
head 6.61996 -10.6089 7.36995
rclavicle 9.34288e-015 2.8625e-014
rhumerus 20.2825 -8.11217 -34.9517
rradius 54.5551
rwrist 11.9215
rhand -32.3068 -39.5716
rfingers 7.12502
rthumb -5.545 -429.479
lclavicle 9.34288e-015 2.8625e-014
lhumerus -36.797 11.9766 71.0697
lradius 40.799
lwrist -2.30285
lhand -10.7063 31.9928
lfingers 7.12502
lthumb 15.3034 61.4066
rfemur -9.59139 -0.704503 37.2553
rtibia 23.472
rfoot -11.0763 -14.1623
rtoes 4.23601
lfemur -32.8669 -2.62407 -1.00083
ltibia 22.7145
lfoot -6.89551 5.01113
ltoes -16.1505
